<svg xmlns="http://www.w3.org/2000/svg" width="128" height="128" id="add"><path fill="#3B97D3" d="M64 13.5c-28.7 0-52 23.3-52 52s23.3 52 52 52 52-23.3 52-52-23.3-52-52-52zm0 100c-26.5 0-48-21.5-48-48s21.5-48 48-48 48 21.5 48 48-21.5 48-48 48z"></path><path fill="#2C3E50" d="M64 36.5c3.3 0 6 2.7 6 6V60h18c3.3 0 6 2.7 6 6s-2.7 6-6 6H70v18.5c0 3.3-2.7 6-6 6s-6-2.7-6-6V72H40c-3.3 0-6-2.7-6-6s2.7-6 6-6h18V42.5c0-3.4 2.7-6 6-6m0-2c-4.4 0-8 3.6-8 8V58H40c-4.4 0-8 3.6-8 8s3.6 8 8 8h16v16.5c0 4.4 3.6 8 8 8s8-3.6 8-8V74h16c4.4 0 8-3.6 8-8s-3.6-8-8-8H72V42.5c0-4.5-3.6-8-8-8z"></path></svg>