<svg width="36" height="36" viewBox="0 0 36 36" fill="none" xmlns="http://www.w3.org/2000/svg">
<rect width="36" height="36" rx="18" fill="#264A58"/>
<path d="M6.94922 19.5078C7.41276 19.5078 7.82943 19.388 8.19922 19.1484C8.33724 19.2917 8.40625 19.4414 8.40625 19.5977C8.40625 19.7435 8.23828 19.8607 7.90234 19.9492C7.56641 20.0352 7.16276 20.0781 6.69141 20.0781C5.9388 20.0781 5.38411 19.901 5.02734 19.5469C4.67057 19.1927 4.49219 18.5495 4.49219 17.6172C4.49219 16.5781 4.70182 15.8138 5.12109 15.3242C5.54036 14.8346 6.15755 14.5898 6.97266 14.5898C7.42578 14.5898 7.76823 14.6263 8 14.6992C8.23177 14.7721 8.34766 14.8958 8.34766 15.0703C8.34766 15.2135 8.27604 15.3555 8.13281 15.4961C7.66406 15.2721 7.21484 15.1602 6.78516 15.1602C6.34245 15.1602 6.00911 15.3203 5.78516 15.6406C5.5612 15.9583 5.44922 16.4974 5.44922 17.2578C5.44922 18.099 5.56641 18.6849 5.80078 19.0156C6.03776 19.3438 6.42057 19.5078 6.94922 19.5078ZM9.53906 16.1562C9.53906 15.9635 9.53385 15.7578 9.52344 15.5391C9.51562 15.3177 9.4974 15.1615 9.46875 15.0703C9.44271 14.9792 9.39714 14.9206 9.33203 14.8945C9.26953 14.8685 9.1888 14.8555 9.08984 14.8555C9.05599 14.7747 9.03906 14.6953 9.03906 14.6172C9.03906 14.5365 9.07161 14.4857 9.13672 14.4648C9.20182 14.444 9.41667 14.4336 9.78125 14.4336C9.98698 14.4336 10.1263 14.444 10.1992 14.4648C10.2721 14.4831 10.3138 14.5195 10.3242 14.5742C10.3346 14.6263 10.3398 14.7174 10.3398 14.8477V16.5C10.5013 16.3932 10.6966 16.2995 10.9258 16.2188C11.1576 16.1354 11.3984 16.0938 11.6484 16.0938C11.9688 16.0938 12.2161 16.1745 12.3906 16.3359C12.5677 16.4948 12.6562 16.7995 12.6562 17.25C12.6562 18.651 12.6758 19.3932 12.7148 19.4766C12.7565 19.5599 12.8503 19.6003 12.9961 19.5977C13.0247 19.6732 13.0391 19.7487 13.0391 19.8242C13.0391 19.8945 13.0169 19.9414 12.9727 19.9648C12.9284 19.9883 12.8464 20 12.7266 20C12.3646 20 12.1432 19.9961 12.0625 19.9883C11.9818 19.9779 11.9271 19.9505 11.8984 19.9062C11.8698 19.8594 11.8555 19.7826 11.8555 19.6758V17.9922C11.8555 17.4557 11.7982 17.099 11.6836 16.9219C11.5716 16.7448 11.3893 16.6562 11.1367 16.6562C10.9206 16.6562 10.7331 16.7174 10.5742 16.8398C10.418 16.9622 10.3398 17.1823 10.3398 17.5V18.3242C10.3398 18.7852 10.349 19.2096 10.3672 19.5977H10.8008C10.832 19.6654 10.8477 19.7383 10.8477 19.8164C10.8477 19.8867 10.8333 19.9349 10.8047 19.9609C10.776 19.987 10.7214 20 10.6406 20H9.10547C9.07161 19.9167 9.05469 19.8385 9.05469 19.7656C9.05469 19.7083 9.06901 19.6667 9.09766 19.6406C9.1263 19.612 9.17318 19.5977 9.23828 19.5977H9.50781C9.52865 19.1836 9.53906 18.7331 9.53906 18.2461V16.1562ZM16.0977 19.6875C15.8789 19.8151 15.6536 19.9128 15.4219 19.9805C15.1927 20.0456 14.9674 20.0781 14.7461 20.0781C14.3945 20.0781 14.1328 19.9961 13.9609 19.832C13.7891 19.6654 13.7031 19.4193 13.7031 19.0938C13.7031 18.6953 13.8451 18.3906 14.1289 18.1797C14.4128 17.9688 14.8516 17.8633 15.4453 17.8633H16.0195C16.0039 17.4049 15.9375 17.0859 15.8203 16.9062C15.7057 16.7266 15.5013 16.6367 15.207 16.6367C15.0508 16.6367 14.901 16.6523 14.7578 16.6836C14.6823 16.8346 14.6367 16.9154 14.6211 16.9258C14.6081 16.9362 14.5339 16.9596 14.3984 16.9961C14.263 17.0299 14.168 17.0234 14.1133 16.9766C14.0612 16.9271 14.0065 16.8385 13.9492 16.7109C13.8945 16.5833 13.8672 16.4805 13.8672 16.4023C13.8672 16.3503 13.888 16.3099 13.9297 16.2812C13.974 16.2526 14.1497 16.2174 14.457 16.1758C14.7643 16.1341 15.0911 16.1133 15.4375 16.1133C15.8984 16.1133 16.2383 16.1927 16.457 16.3516C16.6784 16.5104 16.7891 16.8021 16.7891 17.2266V18.4297C16.7891 18.987 16.8125 19.3268 16.8594 19.4492C16.9089 19.5716 16.9896 19.6211 17.1016 19.5977C17.1328 19.6549 17.1484 19.7109 17.1484 19.7656C17.1484 19.8542 17.0924 19.9219 16.9805 19.9688C16.8711 20.0156 16.7227 20.0391 16.5352 20.0391C16.444 20.0391 16.3737 20.0273 16.3242 20.0039C16.2773 19.9831 16.2018 19.8776 16.0977 19.6875ZM16.0195 18.3672C15.7956 18.3281 15.5638 18.3086 15.3242 18.3086C15.0273 18.3086 14.819 18.3581 14.6992 18.457C14.582 18.556 14.5234 18.7122 14.5234 18.9258C14.5234 19.1341 14.5755 19.2917 14.6797 19.3984C14.7865 19.5026 14.9505 19.5547 15.1719 19.5547C15.3438 19.5547 15.5039 19.5208 15.6523 19.4531C15.8008 19.3854 15.8984 19.2917 15.9453 19.1719C15.9948 19.0495 16.0195 18.8581 16.0195 18.5977V18.3672ZM18.2539 16.1719L18.5703 15.0625C18.6797 15.0964 18.7721 15.1367 18.8477 15.1836C18.9258 15.2305 18.9831 15.2865 19.0195 15.3516C19.056 15.4141 19.0742 15.6341 19.0742 16.0117V16.1719H20.3594C20.3906 16.2578 20.4062 16.349 20.4062 16.4453C20.4062 16.5208 20.3919 16.5716 20.3633 16.5977C20.3346 16.6211 20.2773 16.6328 20.1914 16.6328H19.0742V18.4805C19.0742 18.9206 19.1146 19.2109 19.1953 19.3516C19.276 19.4896 19.3971 19.5625 19.5586 19.5703C19.7227 19.5781 19.9232 19.5247 20.1602 19.4102C20.2174 19.4961 20.2461 19.5898 20.2461 19.6914C20.2461 19.8294 20.1693 19.9219 20.0156 19.9688C19.8646 20.0156 19.625 20.0391 19.2969 20.0391C18.9401 20.0391 18.6797 19.9661 18.5156 19.8203C18.3542 19.6745 18.2734 19.4023 18.2734 19.0039V18.0859C18.2734 17.5859 18.2591 17.1016 18.2305 16.6328H17.8477C17.8164 16.5391 17.8008 16.4479 17.8008 16.3594C17.8008 16.2943 17.8151 16.2474 17.8438 16.2188C17.8724 16.1875 17.9206 16.1719 17.9883 16.1719H18.2539ZM22.9141 14.668C23.6328 14.668 24.1641 14.7695 24.5078 14.9727C24.8516 15.1732 25.0234 15.4766 25.0234 15.8828C25.0234 16.5052 24.651 16.9544 23.9062 17.2305C24.8203 17.3685 25.2773 17.7852 25.2773 18.4805C25.2773 18.9388 25.0924 19.3073 24.7227 19.5859C24.3529 19.862 23.7044 20 22.7773 20L21.0508 20.0039C21.0169 19.9154 21 19.832 21 19.7539C21 19.7018 21.013 19.6641 21.0391 19.6406C21.0677 19.6146 21.1133 19.6016 21.1758 19.6016H21.4648C21.4831 19.237 21.4922 18.4505 21.4922 17.2422C21.4922 16.1562 21.4831 15.4323 21.4648 15.0703H21.0508C21.0169 14.9818 21 14.8997 21 14.8242C21 14.7695 21.013 14.7305 21.0391 14.707C21.0677 14.681 21.1133 14.668 21.1758 14.668H22.9141ZM22.3594 18.4609C22.3594 18.9193 22.3919 19.1953 22.457 19.2891C22.5247 19.3828 22.7669 19.4297 23.1836 19.4297C23.5898 19.4297 23.8802 19.3594 24.0547 19.2188C24.2318 19.0755 24.3203 18.8503 24.3203 18.543C24.3203 18.2044 24.2083 17.9453 23.9844 17.7656C23.7604 17.5833 23.4193 17.4922 22.9609 17.4922C22.7422 17.4922 22.5417 17.5052 22.3594 17.5312V18.4609ZM22.3594 16.9688C22.5104 16.9896 22.6784 17 22.8633 17C23.2904 17 23.5977 16.9245 23.7852 16.7734C23.9727 16.6224 24.0664 16.4036 24.0664 16.1172C24.0664 15.8151 23.9727 15.5938 23.7852 15.4531C23.6003 15.3099 23.3099 15.2383 22.9141 15.2383C22.7266 15.2383 22.5482 15.2513 22.3789 15.2773C22.3685 15.6107 22.362 16.1745 22.3594 16.9688ZM27.7539 19.5547C28.0508 19.5547 28.2656 19.4427 28.3984 19.2188C28.5312 18.9948 28.5977 18.6497 28.5977 18.1836C28.5977 17.6471 28.5286 17.2487 28.3906 16.9883C28.2552 16.7279 28.0208 16.5977 27.6875 16.5977C27.3906 16.5977 27.1758 16.7096 27.043 16.9336C26.9102 17.1576 26.8438 17.5039 26.8438 17.9727C26.8438 18.5065 26.9115 18.9036 27.0469 19.1641C27.1849 19.4245 27.4206 19.5547 27.7539 19.5547ZM27.6055 20.0781C27.0404 20.0781 26.625 19.9284 26.3594 19.6289C26.0938 19.3294 25.9609 18.8776 25.9609 18.2734C25.9609 17.5781 26.1211 17.0378 26.4414 16.6523C26.7643 16.2669 27.2292 16.0742 27.8359 16.0742C28.401 16.0742 28.8164 16.224 29.082 16.5234C29.3477 16.8229 29.4805 17.276 29.4805 17.8828C29.4805 18.5755 29.319 19.1146 28.9961 19.5C28.6758 19.8854 28.2122 20.0781 27.6055 20.0781ZM30.6055 16.1719L30.9219 15.0625C31.0312 15.0964 31.1237 15.1367 31.1992 15.1836C31.2773 15.2305 31.3346 15.2865 31.3711 15.3516C31.4076 15.4141 31.4258 15.6341 31.4258 16.0117V16.1719H32.7109C32.7422 16.2578 32.7578 16.349 32.7578 16.4453C32.7578 16.5208 32.7435 16.5716 32.7148 16.5977C32.6862 16.6211 32.6289 16.6328 32.543 16.6328H31.4258V18.4805C31.4258 18.9206 31.4661 19.2109 31.5469 19.3516C31.6276 19.4896 31.7487 19.5625 31.9102 19.5703C32.0742 19.5781 32.2747 19.5247 32.5117 19.4102C32.569 19.4961 32.5977 19.5898 32.5977 19.6914C32.5977 19.8294 32.5208 19.9219 32.3672 19.9688C32.2161 20.0156 31.9766 20.0391 31.6484 20.0391C31.2917 20.0391 31.0312 19.9661 30.8672 19.8203C30.7057 19.6745 30.625 19.4023 30.625 19.0039V18.0859C30.625 17.5859 30.6107 17.1016 30.582 16.6328H30.1992C30.168 16.5391 30.1523 16.4479 30.1523 16.3594C30.1523 16.2943 30.1667 16.2474 30.1953 16.2188C30.224 16.1875 30.2721 16.1719 30.3398 16.1719H30.6055Z" fill="white"/>
</svg>
