<svg width="20" height="20" viewBox="0 0 20 20" fill="none" xmlns="http://www.w3.org/2000/svg">
<g opacity="0.5">
<path fill-rule="evenodd" clip-rule="evenodd" d="M6.25016 16.25L6.25016 9.58337C6.25016 7.74242 7.74255 6.25004 9.5835 6.25004L16.2502 6.25004C18.0911 6.25004 19.5835 7.74242 19.5835 9.58337V16.25C19.5835 18.091 18.0911 19.5834 16.2502 19.5834H9.5835C7.74255 19.5834 6.25016 18.091 6.25016 16.25ZM18.3335 16.25V9.58337C18.3335 9.03084 18.114 8.50094 17.7233 8.11024C17.3326 7.71953 16.8027 7.50004 16.2502 7.50004L9.5835 7.50004C8.4329 7.50004 7.50016 8.43278 7.50016 9.58337L7.50016 16.25C7.50016 17.4006 8.4329 18.3334 9.5835 18.3334H16.2502C17.4008 18.3334 18.3335 17.4006 18.3335 16.25Z" fill="white"/>
<path d="M3.75 14.375C4.0933 14.3705 4.37051 14.0933 4.375 13.75L4.375 7.08333C4.37958 5.58946 5.58946 4.37958 7.08333 4.375L13.75 4.375C14.0952 4.375 14.375 4.09518 14.375 3.75C14.375 3.40482 14.0952 3.125 13.75 3.125L7.08333 3.125C4.89721 3.125 3.125 4.89721 3.125 7.08333L3.125 13.75C3.12949 14.0933 3.4067 14.3705 3.75 14.375Z" fill="white"/>
</g>
</svg>
