<svg width="20" height="20" viewBox="0 0 20 20" fill="none" xmlns="http://www.w3.org/2000/svg">
<g opacity="0.5">
<path fill-rule="evenodd" clip-rule="evenodd" d="M6.49155 12.725L7.09989 9.88331C7.18845 9.48842 7.38794 9.12703 7.67489 8.84165L13.2332 3.33331C13.7969 2.75913 14.5622 2.4273 15.3666 2.40831C15.9732 2.39962 16.5582 2.63363 16.9916 3.05831C17.9384 4.17704 17.8161 5.84766 16.7166 6.81665L11.1582 12.375C10.8728 12.6619 10.5114 12.8614 10.1166 12.95L7.27489 13.5583H7.11655C6.90881 13.5663 6.71039 13.4718 6.58566 13.3054C6.46092 13.1391 6.42575 12.9222 6.49155 12.725ZM8.55822 9.73332C8.44146 9.84647 8.36035 9.9913 8.32489 10.15L7.91655 12.0916L9.85822 11.675C10.0169 11.6395 10.1617 11.5584 10.2749 11.4416L15.8332 5.88332C16.4421 5.39583 16.563 4.51705 16.1082 3.88331C15.9091 3.69307 15.6418 3.59096 15.3666 3.59998C14.892 3.61904 14.4436 3.82231 14.1166 4.16665L8.55822 9.73332Z" fill="white"/>
<path d="M16.5917 9.10832C16.2484 9.11281 15.9712 9.39002 15.9667 9.73332V14.475C15.9779 15.1452 15.7195 15.7919 15.2494 16.2697C14.7793 16.7476 14.1371 17.0167 13.4667 17.0167H5.52507C4.13954 16.9895 3.02933 15.8608 3.02507 14.475V6.56665C3.04781 5.17923 4.17912 4.06646 5.56673 4.06665H10.3084C10.6536 4.06665 10.9334 3.78683 10.9334 3.44165C10.9334 3.09647 10.6536 2.81665 10.3084 2.81665H5.52507C3.44715 2.81652 1.75623 4.48886 1.7334 6.56665V14.475C1.7334 16.5691 3.43099 18.2667 5.52507 18.2667H13.4334C15.5242 18.2621 17.2167 16.5658 17.2167 14.475V9.73332C17.2122 9.39002 16.935 9.11281 16.5917 9.10832Z" fill="white"/>
</g>
</svg>
