<svg width="14" height="15" viewBox="0 0 14 15" fill="none" xmlns="http://www.w3.org/2000/svg">
<path d="M7.16667 6.16658C7.16667 5.89044 7.39052 5.66658 7.66667 5.66658H9.66667C9.94281 5.66658 10.1667 5.89044 10.1667 6.16658C10.1667 6.44273 9.94281 6.66658 9.66667 6.66658H7.66667C7.39052 6.66658 7.16667 6.44273 7.16667 6.16658Z" fill="white"/>
<path d="M3.83333 8.83325C3.83333 8.55711 4.05719 8.33325 4.33333 8.33325H9.66667C9.94281 8.33325 10.1667 8.55711 10.1667 8.83325C10.1667 9.10939 9.94281 9.33325 9.66667 9.33325H4.33333C4.05719 9.33325 3.83333 9.10939 3.83333 8.83325Z" fill="white"/>
<path d="M3.83333 11.4999C3.83333 11.2238 4.05719 10.9999 4.33333 10.9999H9.66667C9.94281 10.9999 10.1667 11.2238 10.1667 11.4999C10.1667 11.7761 9.94281 11.9999 9.66667 11.9999H4.33333C4.05719 11.9999 3.83333 11.7761 3.83333 11.4999Z" fill="white"/>
<path fill-rule="evenodd" clip-rule="evenodd" d="M9.68827 0.389068C10.4047 0.445367 11.0032 0.561069 11.5188 0.821037C11.6595 0.891978 11.7928 0.973031 11.9198 1.06535C12.2453 1.30179 12.5315 1.58798 12.7679 1.91341C13.1585 2.45096 13.3333 3.08054 13.4175 3.85757C13.5 4.61899 13.5 5.57872 13.5 6.80307V8.19677C13.5 9.42112 13.5 10.3808 13.4175 11.1423C13.3333 11.9193 13.1585 12.5489 12.7679 13.0864C12.5315 13.4119 12.2453 13.698 11.9198 13.9345C11.3823 14.325 10.7527 14.4999 9.97568 14.5841C9.21426 14.6666 8.25453 14.6666 7.03018 14.6666H6.96982C5.74547 14.6666 4.78574 14.6666 4.02432 14.5841C3.24729 14.4999 2.61771 14.325 2.08016 13.9345C1.75473 13.698 1.46854 13.4119 1.2321 13.0864C0.841549 12.5489 0.666671 11.9193 0.582485 11.1423C0.49999 10.3808 0.499995 9.42111 0.5 8.19675V6.80308C0.499995 5.57873 0.49999 4.61899 0.582485 3.85757C0.666671 3.08054 0.841549 2.45096 1.2321 1.91341C1.46854 1.58798 1.75473 1.30179 2.08016 1.06535C2.32526 0.887274 2.59133 0.752739 2.88506 0.651388C3.37088 0.483759 3.93114 0.4077 4.58989 0.3704C5.24601 0.33325 6.03496 0.333251 6.98641 0.333252H7.02032C8.10364 0.33325 8.97796 0.333248 9.68827 0.389068ZM9.60993 1.38599C8.94326 1.3336 8.10782 1.33325 7 1.33325C6.03232 1.33325 5.27112 1.33343 4.64642 1.3688C4.42875 1.38113 4.23193 1.39757 4.05278 1.41896C4.60728 1.96693 5.05278 2.38963 5.45048 2.70793C5.98542 3.13608 6.38972 3.33806 6.79941 3.40295C7.09307 3.44946 7.39222 3.44946 7.68588 3.40295C8.08413 3.33987 8.47738 3.14722 8.99041 2.74318C9.38225 2.4346 9.8206 2.02208 10.3661 1.48447C10.149 1.44097 9.90016 1.4088 9.60993 1.38599ZM11.3672 1.90035C10.6818 2.58262 10.1179 3.12812 9.60912 3.52881C9.02529 3.98859 8.47442 4.29052 7.84231 4.39064C7.44501 4.45356 7.04028 4.45356 6.64298 4.39064C5.99269 4.28764 5.42829 3.97102 4.82561 3.48866C4.28597 3.05675 3.68058 2.46231 2.9312 1.71407C2.83707 1.76156 2.75 1.81475 2.66794 1.87437C2.42741 2.04913 2.21588 2.26066 2.04112 2.50119C1.79506 2.83986 1.65163 3.27334 1.57667 3.96528C1.50069 4.66658 1.5 5.5722 1.5 6.83325V8.16658C1.5 9.42763 1.50069 10.3333 1.57667 11.0346C1.65163 11.7265 1.79506 12.16 2.04112 12.4986C2.21588 12.7392 2.42741 12.9507 2.66794 13.1255C3.00661 13.3715 3.44009 13.515 4.13203 13.5899C4.83333 13.6659 5.73895 13.6666 7 13.6666C8.26105 13.6666 9.16667 13.6659 9.86797 13.5899C10.5599 13.515 10.9934 13.3715 11.3321 13.1255C11.5726 12.9507 11.7841 12.7392 11.9589 12.4986C12.2049 12.16 12.3484 11.7265 12.4233 11.0346C12.4993 10.3333 12.5 9.42763 12.5 8.16658V6.83325C12.5 5.5722 12.4993 4.66658 12.4233 3.96528C12.3484 3.27334 12.2049 2.83986 11.9589 2.50119C11.7927 2.27246 11.5933 2.06995 11.3672 1.90035Z" fill="white"/>
</svg>
