<svg width="16" height="17" viewBox="0 0 16 17" fill="none" xmlns="http://www.w3.org/2000/svg">
<path d="M8.50002 1.16675C8.50002 0.890606 8.27616 0.666748 8.00002 0.666748C7.72388 0.666748 7.50002 0.890606 7.50002 1.16675V2.50008C7.50002 2.77622 7.72388 3.00008 8.00002 3.00008C8.27616 3.00008 8.50002 2.77622 8.50002 2.50008V1.16675Z" fill="white"/>
<path d="M3.16812 2.96108C2.97286 2.76582 2.65628 2.76582 2.46102 2.96108C2.26576 3.15634 2.26576 3.47292 2.46102 3.66818L3.40383 4.61099C3.59909 4.80626 3.91567 4.80626 4.11093 4.61099C4.3062 4.41573 4.3062 4.09915 4.11093 3.90389L3.16812 2.96108Z" fill="white"/>
<path d="M13.539 3.66818C13.7343 3.47292 13.7343 3.15634 13.539 2.96108C13.3438 2.76582 13.0272 2.76582 12.8319 2.96108L11.8891 3.90389C11.6938 4.09915 11.6938 4.41573 11.8891 4.61099C12.0844 4.80626 12.401 4.80626 12.5962 4.61099L13.539 3.66818Z" fill="white"/>
<path fill-rule="evenodd" clip-rule="evenodd" d="M8.00002 4.00008C5.51474 4.00008 3.50002 6.0148 3.50002 8.50008C3.50002 10.9854 5.51474 13.0001 8.00002 13.0001C10.4853 13.0001 12.5 10.9854 12.5 8.50008C12.5 6.0148 10.4853 4.00008 8.00002 4.00008ZM4.50002 8.50008C4.50002 6.56708 6.06702 5.00008 8.00002 5.00008C9.93302 5.00008 11.5 6.56708 11.5 8.50008C11.5 10.4331 9.93302 12.0001 8.00002 12.0001C6.06702 12.0001 4.50002 10.4331 4.50002 8.50008Z" fill="white"/>
<path d="M0.666687 8.00008C0.390545 8.00008 0.166687 8.22394 0.166687 8.50008C0.166687 8.77622 0.390545 9.00008 0.666687 9.00008H2.00002C2.27616 9.00008 2.50002 8.77622 2.50002 8.50008C2.50002 8.22394 2.27616 8.00008 2.00002 8.00008H0.666687Z" fill="white"/>
<path d="M14 8.00008C13.7239 8.00008 13.5 8.22394 13.5 8.50008C13.5 8.77622 13.7239 9.00008 14 9.00008H15.3334C15.6095 9.00008 15.8334 8.77622 15.8334 8.50008C15.8334 8.22394 15.6095 8.00008 15.3334 8.00008H14Z" fill="white"/>
<path d="M4.11093 13.0963C4.3062 12.901 4.3062 12.5844 4.11093 12.3892C3.91567 12.1939 3.59909 12.1939 3.40383 12.3892L2.46102 13.332C2.26576 13.5272 2.26576 13.8438 2.46102 14.0391C2.65628 14.2343 2.97286 14.2343 3.16812 14.0391L4.11093 13.0963Z" fill="white"/>
<path d="M12.5962 12.3892C12.401 12.1939 12.0844 12.1939 11.8891 12.3892C11.6938 12.5844 11.6938 12.901 11.8891 13.0963L12.8319 14.0391C13.0272 14.2343 13.3438 14.2343 13.539 14.0391C13.7343 13.8438 13.7343 13.5272 13.539 13.332L12.5962 12.3892Z" fill="white"/>
<path d="M8.50002 14.5001C8.50002 14.2239 8.27616 14.0001 8.00002 14.0001C7.72388 14.0001 7.50002 14.2239 7.50002 14.5001V15.8334C7.50002 16.1096 7.72388 16.3334 8.00002 16.3334C8.27616 16.3334 8.50002 16.1096 8.50002 15.8334V14.5001Z" fill="white"/>
</svg>
