<svg width="36" height="34" viewBox="0 0 36 34" fill="none" xmlns="http://www.w3.org/2000/svg">
<path d="M10.75 10C10.3358 10 10 10.3358 10 10.75C10 11.1642 10.3358 11.5 10.75 11.5H24.75C25.1642 11.5 25.5 11.1642 25.5 10.75C25.5 10.3358 25.1642 10 24.75 10H10.75Z" fill="white"/>
<path d="M10.75 16C10.3358 16 10 16.3358 10 16.75C10 17.1642 10.3358 17.5 10.75 17.5H24.75C25.1642 17.5 25.5 17.1642 25.5 16.75C25.5 16.3358 25.1642 16 24.75 16H10.75Z" fill="white"/>
<path d="M10.75 22C10.3358 22 10 22.3358 10 22.75C10 23.1642 10.3358 23.5 10.75 23.5H24.75C25.1642 23.5 25.5 23.1642 25.5 22.75C25.5 22.3358 25.1642 22 24.75 22H10.75Z" fill="white"/>
<rect x="0.3" y="0.3" width="34.9" height="32.9" rx="4.7" stroke="white" stroke-width="0.6"/>
</svg>
