<svg width="36" height="36" viewBox="0 0 36 36" fill="none" xmlns="http://www.w3.org/2000/svg">
<path fill-rule="evenodd" clip-rule="evenodd" d="M1.875 18C1.875 9.09441 9.09441 1.875 18 1.875C26.9056 1.875 34.125 9.09441 34.125 18C34.125 22.5727 32.2202 26.7024 29.1637 29.6356C26.2675 32.415 22.3323 34.125 18 34.125C13.6677 34.125 9.73249 32.415 6.83626 29.6356C3.77984 26.7024 1.875 22.5727 1.875 18ZM27.1247 28.4528C26.4781 26.5188 24.6508 25.125 22.5 25.125H13.5C11.3492 25.125 9.52186 26.5188 8.8753 28.4528C11.3153 30.5848 14.5059 31.875 18 31.875C21.4941 31.875 24.6847 30.5848 27.1247 28.4528ZM18 6.375C14.065 6.375 10.875 9.56497 10.875 13.5C10.875 17.435 14.065 20.625 18 20.625C21.935 20.625 25.125 17.435 25.125 13.5C25.125 9.56497 21.935 6.375 18 6.375Z" fill="white"/>
</svg>
