<svg width="14" height="17" viewBox="0 0 14 17" fill="none" xmlns="http://www.w3.org/2000/svg">
<path fill-rule="evenodd" clip-rule="evenodd" d="M6.99994 6.00009C5.61923 6.00009 4.49994 7.11938 4.49994 8.50009C4.49994 9.8808 5.61923 11.0001 6.99994 11.0001C8.38066 11.0001 9.49994 9.8808 9.49994 8.50009C9.49994 7.11938 8.38066 6.00009 6.99994 6.00009ZM5.49994 8.50009C5.49994 7.67166 6.17152 7.00009 6.99994 7.00009C7.82837 7.00009 8.49994 7.67166 8.49994 8.50009C8.49994 9.32852 7.82837 10.0001 6.99994 10.0001C6.17152 10.0001 5.49994 9.32852 5.49994 8.50009Z" fill="white"/>
<path fill-rule="evenodd" clip-rule="evenodd" d="M9.27642 2.65495C8.62281 0.364692 5.37708 0.364693 4.72347 2.65495C4.52096 3.36455 3.79193 3.78546 3.07614 3.60603C0.765914 3.02695 -0.856954 5.83784 0.79966 7.54901C1.31294 8.07919 1.31294 8.921 0.799659 9.45118C-0.856954 11.1623 0.765914 13.9732 3.07614 13.3942C3.79193 13.2147 4.52096 13.6356 4.72347 14.3452C5.37708 16.6355 8.62281 16.6355 9.27642 14.3452C9.47893 13.6356 10.208 13.2147 10.9238 13.3942C13.234 13.9732 14.8568 11.1623 13.2002 9.45118C12.6869 8.921 12.6869 8.07919 13.2002 7.54901C14.8568 5.83784 13.234 3.02695 10.9238 3.60603C10.208 3.78546 9.47893 3.36455 9.27642 2.65495ZM5.68507 2.92938C6.06259 1.60655 7.9373 1.60655 8.31481 2.92938C8.66543 4.15794 9.92762 4.88666 11.1669 4.57602C12.5013 4.24155 13.4386 5.86509 12.4818 6.85345C11.5931 7.77137 11.5931 9.22882 12.4818 10.1467C13.4386 11.1351 12.5013 12.7586 11.1669 12.4242C9.92762 12.1135 8.66543 12.8423 8.31481 14.0708C7.9373 15.3936 6.06259 15.3936 5.68507 14.0708C5.33446 12.8423 4.07227 12.1135 2.833 12.4242C1.49864 12.7586 0.561283 11.1351 1.51813 10.1467C2.40678 9.22882 2.40678 7.77137 1.51813 6.85345C0.561283 5.86509 1.49864 4.24155 2.833 4.57602C4.07227 4.88666 5.33446 4.15794 5.68507 2.92938Z" fill="white"/>
</svg>
