<svg width="14" height="15" viewBox="0 0 14 15" fill="none" xmlns="http://www.w3.org/2000/svg">
<path d="M7.52901 6.23207C7.51915 6.22415 7.50948 6.2165 7.5 6.20911V10.8333C7.5 11.1094 7.27614 11.3333 7 11.3333C6.72386 11.3333 6.5 11.1094 6.5 10.8333V6.20911C6.49052 6.2165 6.48086 6.22415 6.47099 6.23207C6.25591 6.4048 6.00022 6.66171 5.62036 7.04497L4.68846 7.98522C4.49407 8.18135 4.17749 8.18277 3.98136 7.98838C3.78523 7.79399 3.78382 7.47741 3.97821 7.28128L4.93043 6.32052C5.28469 5.96307 5.58015 5.66494 5.84483 5.45238C6.12245 5.22943 6.41421 5.05985 6.76967 5.01454C6.92261 4.99504 7.07739 4.99504 7.23033 5.01454C7.58579 5.05985 7.87756 5.22943 8.15517 5.45238C8.41985 5.66494 8.7153 5.96306 9.06955 6.3205L10.0218 7.28128C10.2162 7.47741 10.2148 7.79399 10.0186 7.98838C9.82251 8.18277 9.50593 8.18136 9.31154 7.98522L8.37964 7.04497C7.99978 6.66171 7.74409 6.4048 7.52901 6.23207Z" fill="white"/>
<path fill-rule="evenodd" clip-rule="evenodd" d="M11.9198 1.06535C11.3823 0.674801 10.7527 0.499923 9.97568 0.415737C9.21426 0.333242 8.25452 0.333247 7.03017 0.333252H6.99262C6.21925 0.333252 5.55435 0.333252 4.98288 0.352831C3.73392 0.395622 2.81593 0.530783 2.08016 1.06535C1.75473 1.30179 1.46854 1.58798 1.2321 1.91341C0.69753 2.64918 0.56237 3.56717 0.519579 4.81613C0.5 5.38761 0.5 6.05252 0.5 6.8259V8.19676C0.499995 9.42111 0.49999 10.3808 0.582485 11.1423C0.66667 11.9193 0.841549 12.5489 1.2321 13.0864C1.46854 13.4119 1.75473 13.698 2.08016 13.9345C2.61771 14.325 3.24729 14.4999 4.02432 14.5841C4.78573 14.6666 5.74544 14.6666 6.96977 14.6666H7.03018C8.25451 14.6666 9.21427 14.6666 9.97568 14.5841C10.7527 14.4999 11.3823 14.325 11.9198 13.9345C12.2453 13.698 12.5315 13.4119 12.7679 13.0864C13.1585 12.5489 13.3333 11.9193 13.4175 11.1423C13.5 10.3809 13.5 9.42114 13.5 8.19682V6.80307C13.5 5.57874 13.5 4.61898 13.4175 3.85757C13.3333 3.08054 13.1585 2.45096 12.7679 1.91341C12.5315 1.58798 12.2453 1.30179 11.9198 1.06535ZM7 1.33325C8.26105 1.33325 9.16667 1.33394 9.86797 1.40992C10.5599 1.48489 10.9934 1.62831 11.3321 1.87437C11.5726 2.04913 11.7841 2.26066 11.9589 2.50119C12.2049 2.83986 12.3484 3.27334 12.4233 3.96528C12.4993 4.66658 12.5 5.5722 12.5 6.83325V8.16658C12.5 9.42763 12.4993 10.3333 12.4233 11.0346C12.3484 11.7265 12.2049 12.16 11.9589 12.4986C11.7841 12.7392 11.5726 12.9507 11.3321 13.1255C10.9934 13.3715 10.5599 13.515 9.86797 13.5899C9.16667 13.6659 8.26105 13.6666 7 13.6666C5.73895 13.6666 4.83333 13.6659 4.13203 13.5899C3.44009 13.515 3.00661 13.3715 2.66794 13.1255C2.42741 12.9507 2.21588 12.7392 2.04112 12.4986C1.79506 12.16 1.65163 11.7265 1.57667 11.0346C1.50069 10.3333 1.5 9.42763 1.5 8.16658V6.83325C1.5 6.26769 1.50003 5.77206 1.50721 5.33204C1.82365 5.32912 2.0566 5.31928 2.26633 5.28606C3.90659 5.02627 5.19301 3.73984 5.45281 2.09958C5.48602 1.88985 5.49587 1.6569 5.49878 1.34046C5.93881 1.33328 6.43443 1.33325 7 1.33325ZM2.1099 4.29837C1.97321 4.32002 1.81492 4.32828 1.54496 4.3314C1.60748 3.4245 1.75077 2.90083 2.04112 2.50119C2.21588 2.26066 2.42741 2.04913 2.66794 1.87437C3.06758 1.58402 3.59125 1.44073 4.49814 1.37821C4.49503 1.64817 4.48677 1.80646 4.46512 1.94315C4.2731 3.15551 3.32226 4.10635 2.1099 4.29837Z" fill="white"/>
</svg>
